/* XPM */
static char *c20f31c712984cf7d4c2bfd423e9ea4b[] = {
/* columns rows colors chars-per-pixel */
"64 64 256 2 ",
"   c black",
".  c #0000A8",
"X  c #00A800",
"o  c #00A8A8",
"O  c #A80000",
"+  c #A800A8",
"@  c #A85400",
"#  c gray66",
"$  c gray33",
"%  c #5454FC",
"&  c #54FC54",
"*  c #54FCFC",
"=  c #FC5454",
"-  c #FC54FC",
";  c #FCFC54",
":  c gray99",
">  c #ECECEC",
",  c gainsboro",
"<  c #D0D0D0",
"1  c #C0C0C0",
"2  c #B4B4B4",
"3  c gray66",
"4  c #989898",
"5  c gray55",
"6  c #7C7C7C",
"7  c gray44",
"8  c #646464",
"9  c gray33",
"0  c #484848",
"q  c gray22",
"w  c #2C2C2C",
"e  c #202020",
"r  c #FC0000",
"t  c #EC0000",
"y  c #E00000",
"u  c #D40000",
"i  c #C80000",
"p  c #BC0000",
"a  c #B00000",
"s  c #A40000",
"d  c #980000",
"f  c #880000",
"g  c #7C0000",
"h  c #700000",
"j  c #640000",
"k  c #580000",
"l  c #4C0000",
"z  c #400000",
"x  c #FCD8D8",
"c  c #FCB8B8",
"v  c #FC9C9C",
"b  c #FC7C7C",
"n  c #FC5C5C",
"m  c #FC4040",
"M  c #FC2020",
"N  c #FC0000",
"B  c #FCA85C",
"V  c #FC9840",
"C  c #FC8820",
"Z  c #FC7800",
"A  c #E46C00",
"S  c #CC6000",
"D  c #B45400",
"F  c #9C4C00",
"G  c #FCFCD8",
"H  c #FCFCB8",
"J  c #FCFC9C",
"K  c #FCFC7C",
"L  c #FCF85C",
"P  c #FCF440",
"I  c #FCF420",
"U  c #FCF400",
"Y  c #E4D800",
"T  c #CCC400",
"R  c #B4AC00",
"E  c #9C9C00",
"W  c #848400",
"Q  c #706C00",
"!  c #585400",
"~  c #404000",
"^  c #D0FC5C",
"/  c #C4FC40",
"(  c #B4FC20",
")  c #A0FC00",
"_  c #90E400",
"`  c #80CC00",
"'  c #74B400",
"]  c #609C00",
"[  c #D8FCD8",
"{  c #BCFCB8",
"}  c #9CFC9C",
"|  c #80FC7C",
" . c #60FC5C",
".. c #40FC40",
"X. c #20FC20",
"o. c #00FC00",
"O. c #00FC00",
"+. c #00EC00",
"@. c #00E000",
"#. c #00D400",
"$. c #04C800",
"%. c #04BC00",
"&. c #04B000",
"*. c #04A400",
"=. c #049800",
"-. c #048800",
";. c #047C00",
":. c #047000",
">. c #046400",
",. c #045800",
"<. c #044C00",
"1. c #044000",
"2. c #D8FCFC",
"3. c #B8FCFC",
"4. c #9CFCFC",
"5. c #7CFCF8",
"6. c #5CFCFC",
"7. c #40FCFC",
"8. c #20FCFC",
"9. c #00FCFC",
"0. c #00E4E4",
"q. c #00CCCC",
"w. c #00B4B4",
"e. c #009C9C",
"r. c #008484",
"t. c #007070",
"y. c #005858",
"u. c #004040",
"i. c #5CBCFC",
"p. c #40B0FC",
"a. c #20A8FC",
"s. c #009CFC",
"d. c #008CE4",
"f. c #007CCC",
"g. c #006CB4",
"h. c #005C9C",
"j. c #D8D8FC",
"k. c #B8BCFC",
"l. c #9C9CFC",
"z. c #7C80FC",
"x. c #5C60FC",
"c. c #4040FC",
"v. c #2024FC",
"b. c #0004FC",
"n. c #0000FC",
"m. c #0000EC",
"M. c #0000E0",
"N. c #0000D4",
"B. c #0000C8",
"V. c #0000BC",
"C. c #0000B0",
"Z. c #0000A4",
"A. c #000098",
"S. c #000088",
"D. c #00007C",
"F. c #000070",
"G. c #000064",
"H. c #000058",
"J. c #00004C",
"K. c #000040",
"L. c #282828",
"P. c #FCE034",
"I. c #FCD424",
"U. c #FCCC18",
"Y. c #FCC008",
"T. c #FCB400",
"R. c #B420FC",
"E. c #A800FC",
"W. c #9800E4",
"Q. c #8000CC",
"!. c #7400B4",
"~. c #60009C",
"^. c #500084",
"/. c #440070",
"(. c #340058",
"). c #280040",
"_. c #FCD8FC",
"`. c #FCB8FC",
"'. c #FC9CFC",
"]. c #FC7CFC",
"[. c #FC5CFC",
"{. c #FC40FC",
"}. c #FC20FC",
"|. c #FC00FC",
" X c #E000E4",
".X c #C800CC",
"XX c #B400B4",
"oX c #9C009C",
"OX c #840084",
"+X c #6C0070",
"@X c #580058",
"#X c #400040",
"$X c #FCE8DC",
"%X c #FCE0D0",
"&X c #FCD8C4",
"*X c #FCD4BC",
"=X c #FCCCB0",
"-X c #FCC4A4",
";X c #FCBC9C",
":X c #FCB890",
">X c #FCB080",
",X c #FCA470",
"<X c #FC9C60",
"1X c #F0945C",
"2X c #E88C58",
"3X c #DC8854",
"4X c #D08050",
"5X c #C87C4C",
"6X c #BC7848",
"7X c #B47044",
"8X c #A86840",
"9X c #A0643C",
"0X c #9C6038",
"qX c #905C34",
"wX c #885830",
"eX c #80502C",
"rX c #744C28",
"tX c #6C4824",
"yX c #5C4020",
"uX c #543C1C",
"iX c #483818",
"pX c #403018",
"aX c #382C14",
"sX c #28200C",
"dX c #600064",
"fX c #006464",
"gX c #006060",
"hX c #00001C",
"jX c #00002C",
"kX c #302410",
"lX c #480048",
"zX c #500050",
"xX c #000034",
"cX c gray11",
"vX c #4C4C4C",
"bX c gray36",
"nX c gray25",
"mX c gray19",
"MX c #343434",
"NX c #D8F4F4",
"BX c #B8E8E8",
"VX c #9CDCDC",
"CX c #74C8C8",
"ZX c #48C0C0",
"AX c #20B4B4",
"SX c #20B0B0",
"DX c #00A4A4",
"FX c #009898",
"GX c #008C8C",
"HX c #008484",
"JX c #007C7C",
"KX c #007878",
"LX c #007474",
"PX c #007070",
"IX c #006C6C",
"UX c #980088",
/* pixels */
"K.K.K.K.K.K.K.K.K.K.K.K.K.K.K.K.K.B.J.A.S.D.A.D.D.G.G.D.V.S.D.D.H.K.hXK.K.K.K.K.K.K.K.K.K.K.K.K.K.K.K.K.K.K.K.K.K.K.K.K.K.K.K.K.",
"K.M.M.M.M.M.M.M.M.M.M.M.M.M.A.hXK.B.H.A.A.S.D.G.D.J.H.G.J.G.G.G.D.K.hXK.B.B.B.B.B.A.hXK.A.A.A.A.A.A.A.A.A.A.H.hXK.M.M.M.M.M.A.hX",
"K.M.. V.N.V.V.V.V.A.V.M.M.N.G.hXK.B.J.K.H.G.H.H.H.J.G.H.J.H.H.H.J.K.hXK.B.V.N.V.V.G.hXK.A.K.G.G.K.H.K.xXK.J.K.hXK.M.M.B.V.. G.hX",
"K.M.A.. B.. V.V.V.V.V.M.M.N.G.hXK.V.K.G.D.D.G.K.K.H.G.J.J.H.H.H.J.K.hXK.B.M.N.. S.G.hXK.A.K.J.J.xXK.xXxXK.H.K.hXK.M.M.N.M.V.G.hX",
"K.M.V.. M.. V.M.N.V.. N.B.B.G.hXK.V.H.J.D.G.H.K.J.H.G.D.G.G.J.J.J.K.hXK.B.N.V.S.G.G.hXK.A.xXK.J.xXxXK.xXxXK.K.hXK.M.M.N.M.M.G.hX",
"K.M.N.V.M.B.V.N.B.N.M.M.. A.G.hXK.V.H.G.G.H.G.H.J.J.J.G.G.H.K.H.J.K.hXK.B.. A.A.S.G.hXK.A.K.K.J.K.J.J.xXK.J.K.hXK.M.B.B.N.M.G.hX",
"K.M.M.M.b.b.M.M.N.N.M.V.S.S.G.hXK.V.H.J.G.G.D.G.H.K.K.J.J.J.S.D.H.K.hXK.B.A.A.D.G.G.hXK.A.K.K.K.J.H.J.K.H.H.K.hXK.M.M.N.M.M.G.hX",
"K.M.V.V.M.b.M.N.M.N.. A.D.V.G.hXK.V.H.J.D.G.D.G.D.J.H.G.G.H.A.H.G.K.hXK.B.A.V.A.S.G.hXK.H.K.K.K.K.K.K.K.K.K.K.hXK.M.N.M.V.V.G.hX",
"K.M.N.B.M.N.B.M.M.A.A.A.D.. G.hXK.V.G.G.A.S.D.D.D.H.G.H.G.H.G.G.. K.hXK.B.D.A.A.D.G.hXK.hXhXhXhXhXhXhXhXhXhXhXhXK.M.M.M.. N.G.hX",
"K.M.N.V.V.V.B.M.N.G.S.A.D.A.G.hXK.D.K.K.K.K.K.K.K.K.K.K.K.K.K.K.K.K.hXK.B.G.S.G.K.G.hXK.K.K.K.K.K.K.K.K.K.K.K.K.K.M.M.B.V.b.G.hX",
"K.M.A.A.. . V.M.V.S.. N.A.. G.hXK.hXhXhXhXhXhXhXhXhXhXhXhXhXhXhXhXhXhXK.B.G.G.K.J.G.hXK.M.M.M.M.M.M.M.M.M.M.V.hXK.M.M.M.b.b.G.hX",
"K.M.. N.. . . N.V.A.. V.A.V.G.hXK.K.K.K.K.K.K.K.K.K.K.K.K.K.K.K.K.K.K.K.B.A.J.H.D.G.hXK.M.A.A.. V.A.A.V.V.B.A.hXK.M.M.B.N.B.G.hX",
"K.M.B.N.. B.A.V.A.A.V.V.V.. G.hXK.V.V.V.V.V.V.V.D.hXK.V.V.V.V.V.V.D.hXK.B.G.K.H.G.G.hXK.M.A.A.. A.S.S.V.V.M.A.hXK.M.N.N.M.N.G.hX",
"K.M.. V.. V.A.V.A.D.A.A.S.A.G.hXK.V.H.H.D.D.J.G.K.hXK.V.A.D.S.A.J.K.hXK.B.S.G.S.D.G.hXK.M.A.A.V.A.A.A.B.B.N.A.hXK.M.N.b.b.B.G.hX",
"K.M.D.S.V.V.V.. A.A.A.A.S.A.G.hXK.V.H.H.H.G.G.D.K.hXK.V.D.G.G.S.H.K.hXK.B.S.G.S.S.G.hXK.M.A.A.A.A.A.A.. A.A.A.hXK.M.b.b.N.S.G.hX",
"K.M.. D.D.. V.S.S.S.S.A.A.A.G.hXK.V.J.J.H.J.J.H.K.hXK.V.H.H.J.D.H.K.hXK.B.S.A.S.S.G.hXK.M.B.V.. . . . A.S.A.A.hXK.M.b.b.B.A.G.hX",
"K.M.. H.G.A.A.G.S.S.S.A.A.A.G.hXK.V.K.K.J.J.J.H.K.hXK.V.D.D.H.G.H.K.hXK.B.A.A.S.S.G.hXK.M.. A.N.B.B.A.D.G.A.A.hXK.M.M.M.B.A.G.hX",
"K.M.G.J.S.A.A.S.S.G.S.A.A.S.G.hXK.V.H.J.H.H.H.D.K.hXK.V.G.D.G.H.J.K.hXK.B.S.S.D.S.G.hXK.M.V.A.N.V.V.B.V.. . A.hXK.M.b.. . S.G.hX",
"K.A.G.G.G.G.G.G.G.G.G.G.G.G.G.hXK.V.S.H.A.G.J.G.K.hXK.V.H.G.H.K.J.K.hXK.B.D.G.H.S.G.hXK.V.A.A.A.A.A.A.A.A.A.A.hXK.A.G.G.G.G.G.hX",
"K.hXhXhXhXhXhXhXhXhXhXhXhXhXhXhXK.V.A.S.A.G.H.D.K.hXK.V.J.H.G.J.H.K.hXK.B.G.H.J.A.G.hXK.hXhXhXhXhXhXhXhXhXhXhXhXK.hXhXhXhXhXhXhX",
"K.K.K.K.K.K.K.K.K.K.K.K.K.K.K.K.K.V.A.. A.D.D.D.K.hXK.D.K.K.K.K.K.K.hXK.A.G.G.G.G.G.hXK.K.K.K.K.K.K.K.K.K.K.K.K.K.K.K.K.K.K.K.K.",
"V.V.V.V.V.V.V.V.V.V.V.V.V.V.D.hXK.V.S.A.D.H.J.J.K.hXK.hXhXhXhXhXhXhXhXK.hXhXhXhXhXhXhXK.V.V.V.V.V.V.V.V.V.V.V.V.V.S.hXK.V.V.V.V.",
"H.D.S.S.D.J.xXjXxXK.xXxXjXxXK.hXK.V.G.S.G.J.xXH.K.hXK.K.K.K.K.K.K.K.K.K.K.K.K.K.K.K.K.K.V.xXxXxXJ.V.G.G.K.D.. A.H.G.hXK.V.J.S.G.",
"xXH.G.K.J.K.jXjXxXK.xXxXxXK.K.hXK.V.G.D.H.G.J.G.K.hXK.B.B.B.B.B.B.B.B.B.B.B.B.B.B.S.hXK.V.J.J.K.H.A.S.D.J.G.H.G.K.G.hXK.V.G.H.xX",
"G.G.G.J.G.G.H.xXxXxXK.K.K.K.K.hXK.V.G.S.G.S.G.D.K.hXK.B.A.A.A.A.A.S.D.S.S.A.A.A.A.G.hXK.V.K.J.D.A.. A.G.D.D.xXJ.K.G.hXK.V.J.xXxX",
"H.G.G.K.J.K.xXjXJ.K.G.xXK.D.K.hXK.V.S.V.S.D.G.H.K.hXK.B.A.A.A.. A.S.A.A.S.S.A.S.S.G.hXK.V.G.H.G.H.J.G.G.G.H.xXH.D.G.hXK.V.K.jXxX",
"K.K.K.K.K.K.K.K.K.K.K.K.K.K.K.hXK.D.K.K.K.K.K.K.K.hXK.B.D.S.S.A.A.D.S.A.A.D.G.D.G.G.hXK.V.G.H.G.J.K.J.G.H.G.xXK.K.G.hXK.D.K.K.K.",
"hXhXhXhXhXhXhXhXhXhXhXhXhXhXhXhXK.hXhXhXhXhXhXhXhXhXK.B.G.S.G.D.D.G.D.S.A.A.S.G.S.G.hXK.V.G.K.xXxXJ.D.G.H.H.H.G.G.G.hXK.hXhXhXhX",
"K.K.K.K.K.K.K.K.K.K.K.K.K.K.K.K.K.K.K.K.K.K.K.K.K.K.K.B.S.S.G.D.S.S.S.S.A.S.J.G.A.G.hXK.V.J.jXK.G.D.D.G.G.D.G.H.G.G.hXK.K.K.K.K.",
"M.M.M.M.M.M.M.M.M.M.M.M.M.M.M.M.M.M.M.M.M.M.M.M.V.hXK.A.G.G.G.G.G.G.G.G.G.G.G.G.G.G.hXK.V.J.K.G.D.D.D.D.D.D.D.G.D.G.hXK.M.M.M.M.",
"S.B.V.A.M.A.A.A.B.V.N.M.N.V.b.b.b.b.b.b.b.B.A.A.A.hXK.hXhXhXhXhXhXhXhXhXhXhXhXhXhXhXhXK.V.D.H.H.D.A.S.S.D.D.S.D.D.G.hXK.M.A.V.V.",
"A.M.V.A.V.S.A.B.B.A.V.B.B.N.b.M.b.M.b.M.N.V.A.S.A.hXK.K.K.K.K.K.K.K.K.K.K.K.K.K.K.K.K.K.V.A.D.A.D.D.S.S.D.G.D.G.G.G.hXK.M.. V.. ",
"b.b.B.V.V.A.N.B.V.A.V.B.B.A.M.M.M.M.b.M.N.B.A.V.A.hXK.B.B.B.B.B.B.S.hXK.A.A.A.A.A.H.hXK.V.A.S.D.G.D.S.S.D.D.S.D.G.G.hXK.M.A.B.B.",
"M.V.V.V.A.A.V.V.M.B.V.V.A.A.b.b.b.b.b.M.N.N.V.M.A.hXK.B.J.J.G.D.A.G.hXK.A.H.J.K.J.K.hXK.S.G.G.G.G.G.G.G.G.G.G.G.G.G.hXK.M.A.. . ",
"M.V.M.N.B.B.A.B.N.V.V.A.A.V.M.M.M.V.V.M.b.N.V.b.A.hXK.B.G.A.. V.. G.hXK.A.J.J.xXK.K.hXK.hXhXhXhXhXhXhXhXhXhXhXhXhXhXhXK.M.V.N.B.",
"V.A.V.B.V.V.A.V.N.b.V.A.A.M.M.b.M.V.A.b.M.V.M.b.A.hXK.B.V.V.V.N.B.G.hXK.A.xXxXxXJ.K.hXK.K.K.K.K.K.K.K.K.K.K.K.K.K.K.K.K.M.A.V.V.",
"A.V.B.B.V.A.B.N.M.M.N.B.V.M.M.b.b.B.V.M.b.M.b.b.A.hXK.B.M.A.. . A.G.hXK.A.K.xXK.J.K.hXK.M.M.M.M.M.M.M.M.M.M.M.M.M.A.hXK.M.M.N.V.",
"A.A.A.A.A.A.A.A.A.A.A.A.A.A.A.A.A.A.A.A.A.A.A.A.A.hXK.B.B.A.. . D.G.hXK.A.K.K.K.J.K.hXK.M.N.b.V.N.M.. N.M.A.N.B.M.A.hXK.V.A.A.A.",
"hXhXhXhXhXhXhXhXhXhXhXhXhXhXhXhXhXhXhXhXhXhXhXhXhXhXK.B.N.V.V.B.A.G.hXK.A.K.J.J.J.K.hXK.M.A.. A.V.N.. M.M.B.b.B.B.S.hXK.hXhXhXhX",
"K.K.K.K.K.K.K.K.K.K.K.K.K.K.K.K.K.K.K.K.K.K.K.K.K.K.K.B.M.N.B.. G.G.hXK.H.J.H.K.K.K.hXK.M.A.B.M.M.N.N.B.B.N.M.V.A.D.hXK.K.K.K.K.",
"A.A.A.H.hXK.N.N.N.N.N.N.N.N.A.hXK.D.B.B.B.B.B.B.A.hXK.B.A.A.. G.K.G.hXK.hXhXhXhXhXhXhXK.hXhXhXhXhXhXhXhXhXhXhXhXhXhXhXK.K.A.A.A.",
"J.xXxXK.hXK.N.A.B.. D.. V.A.G.hXK.B.. V.V.. . V.G.hXK.B.A.D.D.G.J.G.hXK.K.K.K.K.K.K.K.K.K.K.K.K.K.K.K.K.K.K.K.K.K.K.K.K.K.A.J.xX",
"xXK.xXK.hXK.N.B.N.V.V.N.N.V.G.hXK.B.A.A.S.S.A.V.G.hXK.S.G.G.G.G.G.G.hXK.B.B.B.B.B.B.B.B.B.B.B.B.B.B.A.hXK.V.M.b.b.B.V.hXK.A.J.xX",
"J.J.xXK.hXK.N.B.V.V.V.V.N.B.G.hXK.B.V.A.. S.V.V.G.hXK.hXhXhXhXhXhXhXhXK.B.A.A.G.S.A.A.D.A.. B.A.D.A.G.hXK.V.M.M.M.M.A.hXK.A.J.K.",
"H.J.K.K.hXK.N.N.V.V.B.N.M.V.G.hXK.B.A.A.D.S.A.G.G.hXK.K.K.K.K.K.K.K.K.K.B.. S.G.A.A.A.A.. A.. S.S.V.G.hXK.V.M.N.B.b.A.hXK.A.K.J.",
"G.K.xXK.hXK.N.N.. S.V.V.A.. G.hXK.B.A.. A.. A.J.G.hXK.M.M.M.M.M.M.V.hXK.B.V.A.G.A.S.S.A.S.. V.V.. V.G.hXK.V.N.N.M.M.A.hXK.A.K.H.",
"G.xXK.K.hXK.N.V.S.G.S.A.A.V.G.hXK.B.D.A.H.A.D.H.G.hXK.M.B.N.b.M.b.A.hXK.B.. A.D.G.D.S.A.V.N.A.S.V.. G.hXK.B.M.b.b.M.A.hXK.A.H.A.",
"xXxXJ.K.hXK.N.A.A.S.S.V.B.N.G.hXK.B.S.H.H.V.S.S.G.hXK.M.B.A.M.M.M.A.hXK.B.. A.A.D.A.A.A.B.A.D.D.A.A.G.hXK.B.M.b.M.M.A.hXK.A.J.K.",
"jXjXJ.K.hXK.N.A.D.G.D.D.A.V.G.hXK.B.D.D.A.. D.A.G.hXK.M.A.A.b.b.b.A.hXK.B.D.A.S.D.A.A.D.B.A.A.V.. A.G.hXK.N.M.M.b.M.A.hXK.A.K.jX",
"xXK.G.K.hXK.N.V.A.S.H.G.A.V.G.hXK.B.S.A.S.G.S.A.G.hXK.M.A.V.M.M.M.A.hXK.B.A.V.A.D.D.G.H.S.D.H.G.G.A.G.hXK.B.M.M.b.b.A.hXK.A.xXJ.",
"K.G.G.K.hXK.N.A.A.D.D.D.A.M.G.hXK.B.S.D.G.D.S.A.G.hXK.M.A.M.M.b.M.A.hXK.B.. A.G.D.D.G.A.S.D.H.G.G.G.G.hXK.B.M.b.b.b.A.hXK.A.H.G.",
"K.K.K.K.hXK.N.S.G.K.H.G.. M.G.hXK.A.G.G.G.G.G.G.G.hXK.V.A.A.A.A.A.A.hXK.B.S.G.H.D.D.G.. D.H.H.H.K.H.G.hXK.N.b.b.b.M.A.hXK.H.K.K.",
"hXhXhXhXhXK.N.G.K.J.D.D.A.V.G.hXK.hXhXhXhXhXhXhXhXhXK.hXhXhXhXhXhXhXhXK.S.G.G.G.G.G.G.G.G.G.G.G.G.G.G.hXK.V.A.A.A.A.A.hXK.hXhXhX",
"K.K.K.K.K.K.N.J.H.D.D.A.N.B.G.hXK.K.K.K.K.K.K.K.K.K.K.K.K.K.K.K.K.K.K.K.hXhXhXhXhXhXhXhXhXhXhXhXhXhXhXhXK.hXhXhXhXhXhXhXK.K.K.K.",
"M.M.M.V.hXK.N.K.H.G.S.. V.. G.hXK.B.B.B.B.B.B.B.B.B.B.B.B.B.B.B.B.A.hXK.K.K.K.K.K.K.K.K.K.K.K.K.K.K.K.K.K.K.K.K.K.K.K.K.K.M.M.M.",
"A.. A.A.hXK.N.G.S.D.A.V.. A.G.hXK.B.G.S.G.A.. . A.V.A.S.H.G.J.H.J.K.hXK.B.B.B.B.B.B.B.B.B.B.B.B.B.B.B.B.B.B.B.B.B.B.A.hXK.M.A.A.",
". B.B.A.hXK.N.G.S.S.A.. A.D.G.hXK.B.D.G.D.A.. V.D.A.A.D.D.D.K.J.J.K.hXK.B.. A.A.A.A.A.A.A.S.A.S.D.S.S.G.D.D.D.S.V.V.G.hXK.M.A.A.",
"V.V.B.A.hXK.N.A.S.S.A.A.S.D.G.hXK.B.D.K.J.D.A.. A.G.D.D.xXJ.J.H.H.K.hXK.B.A.A.. . A.. . . S.A.G.D.S.A.A.A.A.A.A.B.V.G.hXK.M.A.A.",
"N.V.N.A.hXK.N.A.S.S.V.V.D.S.G.hXK.B.S.G.H.G.H.J.G.G.G.H.xXH.H.A.G.K.hXK.B.. . A.A.A.. . A.S.S.G.D.S.S.A.A.A.G.A.V.V.G.hXK.M.A.A.",
"b.M.N.A.hXK.N.S.D.S.S.D.H.A.G.hXK.B.G.G.H.G.H.H.J.G.G.H.xXJ.S.A.G.K.hXK.B.A.A.A.S.A.A.. A.S.S.S.S.S.S.A.A.A.D.A.A.D.G.hXK.M.A.. ",
"M.N.V.A.hXK.N.G.H.S.S.D.D.A.G.hXK.B.H.G.K.J.G.J.K.H.H.G.xXJ.. A.D.K.hXK.B.A.. A.A.V.. A.. S.A.A.A.S.D.S.A.A.A.V.A.A.G.hXK.M.V.N.",
"V.. A.A.hXK.N.H.J.A.D.S.G.G.G.hXK.B.H.J.jXK.xXxXJ.D.G.G.D.G.A.D.H.K.hXK.B.A.A.. . . A.. A.S.S.A.S.S.S.D.S.G.G.S.A.S.G.hXK.M.M.N.",
"A.A.A.A.hXK.A.G.G.G.G.G.G.G.G.hXK.B.G.J.K.K.K.G.D.D.D.D.D.D.D.G.J.K.hXK.A.G.G.G.G.G.G.G.G.G.G.G.G.G.G.G.G.G.G.G.G.G.G.hXK.V.A.A.",
"hXhXhXhXhXhXhXhXhXhXhXhXhXhXhXhXK.B.H.D.G.J.G.D.S.D.D.G.S.D.D.G.J.K.hXK.hXhXhXhXhXhXhXhXhXhXhXhXhXhXhXhXhXhXhXhXhXhXhXhXhXhXhXhX"
};
