/* XPM */
static char *a743a47657bf44b3bb75587fee509368[] = {
/* columns rows colors chars-per-pixel */
"128 128 39 1 ",
"  c #130E06",
". c #0B1506",
"X c #0D1907",
"o c #0E1C08",
"O c #161007",
"+ c #181107",
"@ c #171108",
"# c #1D150A",
"$ c #101E09",
"% c #151515",
"& c #171E13",
"* c #181B16",
"= c #1C1C1C",
"- c #0F2209",
"; c #12220A",
": c #132B0C",
"> c #16310E",
", c #162111",
"< c #192315",
"1 c #1A2B16",
"2 c #1D231A",
"3 c #1E291A",
"4 c #193212",
"5 c #1F3119",
"6 c #20261D",
"7 c #212A1D",
"8 c #23351D",
"9 c #232323",
"0 c #242B23",
"q c #282D27",
"w c #2B2B2B",
"e c #243320",
"r c #293127",
"t c #30352E",
"y c #31392F",
"u c #333333",
"i c #3B3B3B",
"p c #3F403F",
"a c #444444",
/* pixels */
"###@#@@@@@##@++#####+###@+@@@   OOO@OOO             @@@@%###@###################%@###@@@#++@O@@ OO@@@++++++@@@@@@      @@@@@@@++",
"=*============================%=%=%%%%=%%%%%%%%%%%=*%==========9999999999999969=9============%============99=======%=%=%%=======",
"wwwwuuuuiipaaaaaaaaaippiiuuwwwwwwwwwuwuuuuuuuiuiiiiiiiiiuuuwwuwwuiiiiiipaaaaaaaiiiiiiiuuuwwwwwwwwwwwwuiippppaipppiiiuiuuuwwwwwww",
"99999====9==w=999999wwwuu9w9wwwwwwwww99=w9wwwww9uw9wwuiiuu9u9w:wuwu9w9w99999w=9=====999ww999w9www=www9w9uwwuwuwwww999uuuww9w9w;9",
"99wwww99:==www9w999wwuuuu9www9ww;96wuuuuww9wuwwuwwwuuwwiuuwwwqwwwuuiuiu9>w=www=====9=99w9==w9=w9$9=9wwwwwwwwwwwwww9ww9wuuuwww9ww",
"ww9www==9999ww99999ww9wuww99uw9w9uwuwwiw99wwww:wwww99w9iiuw9w,wwiuuuiu999999999======%9=9===w====99wwwuw99w9=w;=w9w9999uuw99w;99",
"9=9w9ww99==9wuw=99ww==w9uw=wwwwwwwwu9uuiu9www9wwwwww9wwwuuwww9w:uwuiwuuww9999w9%=%==%%=%==%=9==w9999=wwu9=w9w=wwww9=999wuu9ww9w-",
"=9www99=9=999uw=9wwu9w9www=Xwww9u99wwwww9999w;www99999w9wuuwwwwwuwiuiww999999w9====9%=%===%.=9==w==9999w99*99;99===9=9w=quuw99w9",
"w==99=w9=wuwwuwu=www999www9=9w9ww99w999ww999ww9w99w9ww9w9uwwwww9i99wu9iw9uuw9w99==9=%%=%==%%===99==9999999=999=w=99=9w99=uw9w9w=",
"*=====99=w9uuuuuuuuuw==9w==99wwwwww9=999999w9999999wuw999uwww9w:99wu99ww9wwwww9w=9999%%==%%%==9999w===9=9=9===9=9=9www999w9w9=9;",
"%=99==9wwuiuw=uwwwuuwuuw==9wwwwwwww999=999w9999w=ww9999wuu99=99u99ww99wuuuiw9=999=9999==%%===99ww9w=9==9==9===99999==999uw==*999",
"=9=w=99iuuwww9=wuwwuw9ww9=ww9wwwww9w9w999=999999wwww9=uiuwu99wwu9wwu=wwpiuw99%==99====9==%9==9w9999w99w=9=9=99==99w99=www999==9w",
"=w9w99%wwwuu9u99ww9wuwww9wu99=w=999w99w99999999w9wuww9wwww9wwwwi9uuu9w=ww9ww=9=%===9=999=99===9=99=w=9w==99==9999wwww=9w99999w9w",
"wwwwu99wwww99wwww99wwwwwww==9999w99999999999999999www9%wwwuwwwwiiiuui9=wwww==9999===99=9==%%===9w99ww9w9w999=9=9=9w999%=99w9999u",
"uwu9u9w9w9w=9wwwww9www9www=9w=99ww99=9w999=9999999w9w999ww9ww9wuiiiwu9w9w9w%=9=9=====9===9%=====ww=9=wwww9999999=9999===9=999999",
"9uwwww99wwwww9w9ww=9ww9wwww9w9999==9=9w9999=999w9w9w99=wwwwwwuwuwuwwuw99w9w9999=9=%===%======9=99=999wwwww9==9=99=99===999w=9w9w",
"ww9ww9w999999999999www9w9ww=999w9===999999=99999w99999=w9wu:uuwuuuw9w9w99999====9==========%===999=9w99www9999=9==99%9%9==9:w9w9",
"wwwu9w999==99%==999==ww99=999=%9=9==9==999=99999www=99w99wwwwwuwwwuu999w9==99%=%===%====%%=====9999999ww99999=9999=%9=9%=9999999",
"9wwww9999==9=========9=w========9%====9=999=9999999*9;w9wwwwwwuwwuuww9999=99=*=====%=%%=%%%====w999999www9999=9==9%%=$===99999w9",
"9uwuww99=9===%%===9========9==%=9===%====9=9==999=999w99w9u:9w9u9uwuw999=9=9=%%==99==%%%=%==%=%=99999999w999==9===========9-9999",
"99www99========%===99=====%==%==%=========9==9=9=w=%9%99=wwwwwuw9wwuuw99=99999=%=9===%=%%%%==%==%9999999999==9%=%9=%%%==%99999w9",
"99www99========%=========%%=%%=9=%=========9=9=9==9===9=w9;uww9u99wuww99w999999========%% ==%==w9=99999w9=9=====%==%%%%%==$99999",
"=9999w99==%==%=9==99999=%%.%=%%==9%%%=======9===%.9=$===9wqwwwww9wwwwuuuww9ww9=9==9====% %.%====999=99999======%%.==.=%=%9=9w=w9",
"99ww9w999=====99999999w9%% %=%%%=%===%%%%9%==9===.===%99u9wwwuwww9wuwuuuuw9999ww9=====9=%%%%==%=9%9=9====9===9===.=%=%%*9=9w9ww9",
"99w99999===%=99=99999999=..% %%%%%======%9====%%XX*=9999uw9u9u9ww9uuwuuwwww9w99=9=9======..%%=%==%=9=9=9%99==9%*XX%==*=%999w9w=9",
"-9999w9===========999999%...%%%%====99%=9%=%=99XXXX====99www=uwu;9wuuuuuwwwww999========%...%%%%===999%99==%==9XXXX%%=%==999=w99",
"9w99999=======%==99w9=9=.%..%%%%%====9=9%=%====9$$===99999www9uwuwwwuwuwwww99=====999%==.%..%%%%%%==%9=9=*======XX======9%999=w9",
"999=9=99==%%==%999%999==.%.%%=%%%==9999=X===X96o9=9999w99w9ww9u>wwwwwwuuw99999=9=9%=9=%%.%.%%%%%%===999=.===X9=$=9====9==9999=w:",
"=9999999=9====999%X=999=.%..%==%=*====9999==999$9==99=999w9wuwuuwwwwuuiuwww99=999=.%====.%..%=%%=%====9999===99$9==99=999=99w9ww",
"9=9999999=999999%.===99=========X=$$=99=====999$999999999w9u99u9w9u9wwwwwww9w9w9=.===9==%%%%=%=%.*XX%9999==9999X=99==9=9999w9=9=",
"999999w9=9999w999%==X99=========w9=9999===9=99999999999;;ww999w9wuwuuwuu9wwwwww99===o99*========99=9w99=9=9999999999w99$$w9==9==",
"&o%*==========%=======99=9===9===&$,*9999999999999w9ww9w9w9w9w9w99999=9===========999=99=======99<$&*999999999w9999999999999999*",
"@@@@@@@  @@@@@@@%@@O@#+##@@#+#+######@####@##########################@#@#@@#@@+++@###+####@##@+###@########################+#+#+",
"=*==**==%=*==%%========69===9========99==999999999999999w9999999999999=9==99=999=999=9=9=====9999999992999699999999999996999=99=",
"54etiiaaaaaaaaaaaaaaaaaaaaaiuuuuq3:1ruuuuuiiiiiipppaaaaaappuuuuuuuuuuiiaaaaaaaaaaaaaaaaaaaaaiuuuwe45yaaaapaapapppaaaaaaaapiuuuuq",
"9=9999999ww9w99999w9999,*=#$#=9999u999w9uuuww99=99ww9999#9w99=u999=9=9=99999999999999w9;==#;#99999uu99w9uiuww99999ww9999;999=9u9",
"9=999=9999999w9w99w99999;=*,#999999w999wuww99;999$9w9999;69999w9999===999999w9ww99w999w9;==;#99w999uq99uiww99;999#9ww999$=9999w9",
"9www=9999=9999999999w999;$$9;99999wwuwwiwu9w9w999w9wuw$96==9$www9999===99=999999w9999w99;;;9$99999wwwuuuwuw9wq999t9wiw$999=9$www",
"999=w=9=99w99999999999=99=9999999wuuwuwwu9;9;9;99wuuuww9w=w9wwww999=999=999w9w999999999999999999wwwuwuwuu9;w;9,99wiiwuu9w9w9wwww",
"99==99===ww999=::9999=99=w=9=999999ww9ww9;;w;9999uiuww9ww9wwwww9999=99=99ww9w99:499w9999999999999wwww9u99;;9;9999uiuww9ww999ww99",
"99999999ww99w9wwu:99w99ww=999=99w9;99,99999;;9=9wuuuwwwww9w9=ww9wwwwwwwwww99wwuuu>99w99uw999999999;99;99999;;9=9wiiuww999699=999",
"9999www99==99w9w99:9999999=9=9=99w:;999w999;9;99ww9w9.w99www99ww9wuwuuuw999w9w9ww9:=w99999999999w9;;999q999;9$99ww=w=@999ww99999",
"999999=999w9999w999=ww$9=9==9999w9;;;9w9999;=9=9wwww99=9uw999=wwwwwuuwwwwww99999999=ww$9=99=99=9w9;;;99w999;=9=9w9w99==9uw9w9=99",
"9999=%=99999=9=9===9uwuw9=9==9=99;9;;99w9w;$99w9wuw99=9=uw99w9uwwwuwwwwwww9999=9=*=9wwww9==999999;9;,99999;;9999ww99=*==ww999=ww",
"999==9=%9==9===%====9wwww9===9999;9;9999;;999=9w9uu999===ww99wuuuwwuuuwwww9===%%%===9999999===999;9-6999,;999=999ww======ww999ww",
"9999==99999===9=*====9wuuw9=99999;9:;,96999;$99www9999=%%=w9w9wwwuuuuuuuww99====%=%%%99w999==999=;9,;;9996=o$=9w9w=====%%=w999w9",
"9==9==99=999=%=====9=9w99=999=w9999999=9=9==999w9w=99===%=w9wwwwuwwuuuuuw999=%=%%=%%%=9====99=99999999999=====9999======%=9=9999",
"99===9==9=%99=====9=9===999999999999999999=999999999%%9===99wwwwwuuwwuuww99==%==%%=%=%%*======99=99999=99999=9==999=%%===%9999=9",
"=====9999999====99=9=9===9ww===999999=999===99=9999=%=%%=%9wwwwwwwwwuuwww99*=*%===%=%=%%=999*==9=999999=99======9=9=%%%%=%%===9=",
"=9999999=999=9%===9=99ww999=9=9-$=9999999=9w999=w===9%%=%999wuwuwuwuwwuwww99==%=======99999=9==$$9===999==9w=99=w=====%%%====9==",
"====9999=9999=%=9==9=999=99==*=$=$999==9=9:=999=99%999===9999wwwwwwwwuwww9999=%==%%=%=99=99===9$=,9w9999994=w9==99%9=9%%%%=%=%==",
"==9===9999=99%9=======99====%Xo$%=99999999999===9==999==999wwwuuuuwwwwww9w99====9=====99==9=@XX$%69999999==9===%=%%==9%===%=%===",
"======999===9======%===%%===99===9==99999=9====9===9ww=9=999wwuuuuwwwwwww99999=====%==9%====99999999999=9=9====9%=====%%%==%====",
"==9=9==99=9==9======%=%%%%%=9===9999=9=99==99999%%99999999999wwiwuuwwwww99999999=99==9=%==99w999u99==99999999=9=%%%====%%%%%%%%=",
"%==999999==99=9===%%%%%%%%%%=99=w9=9=9999999=====%%999999=999wwuuuuuwwwww999999=======%*%%999ww9ww99999999=w===%%%%===%==%%==%%=",
"====99999999999===%% %%%%%====9=9===9=999999999=99w9ww99w=999wwuuuwuuwuww9w999999===%%%=%9=999w9w999999999=999=9====9%===%%=%%=%",
"99==9=9999999===%%%%%..%%%%====9$==9=999=999=9999w9w9w9999999wwwuuwwwwwwwww99999===%%$;====9999w,9999999=w9w9==9===9=9====%=====",
"9======99=9==9==%%%%==9o%=%==99=====9=99999999=w9=9www9ww99wwwwiuwwww9wwwwww9ww9====999-=9=9www9999999999w9=99=99==99==========9",
"99=====%=9===%==%%%%==%=o%=99=====99996999=999w9==9wwu99=9wwwuuuwwwww999ww9ww999=9%99w9=;*9ww999=99999999=999=w9===9ww====99w9w9",
"99=9=====%9=99%==999=9===%=%====9=9999;9=9=99www9w9wwww999wwwwuuwuwwww9w9wuww99w99wu99=99===9=99999999;99999www9=9=ww9w=99w9==w9",
"999====9===99===999ww9===========9=999;699%==9=9ww999uu=9999wuuuuwwww9www9www999wwwwu9=====999=9999999;999=%99=9w9w=9wu===99w9w=",
"w9999====9w99=9=9999w999===w==9=999$$$9$99=%=9999w9w9www=9wwwuuuuuww9w9wwwwww9999999w9w=9*=w==9=999;;;9;99%====9=w=w=www=9w9www9",
"999999w99999w99999wwuwww9=====99=9w9$;9999===99=999==9w9ww9wuuuuuuwwwwww99w9w99999wwu99w9====99=69w9;;9999=%===9999==9w9ww9wuwww",
"9ww9w99w9wwwwww9w9wwwuwwww9w9999$;996$999=%99%=99=999=99wu99uuiu9uuwuwww9w9www99w=99wwwww9=9==99$$999;999==99=9===9===9=wu==wwu9",
"############################################################################################+###################################",
"9999w999w999w999w99w9999999699999999999999w999w999w9w9999999w99=99999=9=999=9=999=999=9=9=99699999=9999999999999999w9w999w99999w",
"iiuiiiipaaaaaaaaaaaaaaaaapiiiiuiiiiipipaaaaaaaaaaaaaaaaappiuiuuiuuuuuuuuiiaiiaaippppaapaiiuiuuiuuiiiipppaaaaaaaaaaaaaaapiiiiuiiu",
"iwiuiwwwuuiuipiwiiwwupaaiiwiwu4uuwww9w9www99uww9ww9wwuwuiwwuuiiuuwuuuww9uwwuuuwwuwwwwuiiuuwuwu:wwww999999999u9w9ww9wwwuuiwwwiuui",
">w9iiiuiiuuuiuuiwuwiiwuapauuuwuuwwiiiuu94w9wwu99999uwiuiuwuuuuuu4w9uuuuuuw9uwuwwwwwuwwupiiuuuwuwwwuuuuw9:99www99999uwuuiuwuuuwiw",
"9iiuiiaiwwuiwu>wuuuwwwwaauuwu>iwiuwuui99w9w9wuw99w9ww9uuuwwuiwuw9uwuuupuw9uwww:wwwwwww9ipuwww;uwwu9uwu=99999ww99999ww9uuiwwwutww",
"uiuuwipaiuuuuuuuuuuwwwwuiiuuuwu>i9iuuuu9w999wuw=99ww=9wwuu9wuuuuuuwu9uiiu9wuwwwwuwu9w9wwiiwwuwu:w9wuwww9=999wuw=99ww99wwuu9wiwwi",
"uwwuiuiuww9wu:uuwwwuwww9wiiuuuuuwwuuuww999w9wuw99wwu9wwwwu9;wiwuu9wwuuuw9w9ww:wu9w9w9wwwwiiuwwww9wuwww9=9=9=www99w9w99wwww2#wuww",
"uwwuwuuwwuwuwuwuwwuwuu999uuwwwu9w99ww9uw9uuuwuuu9wuu99wwuu9w9wuuuw9uwuwwwu9uwwww9ww9www9wuuwwuw9w9=999w9=www9www99ww=999wu299wwu",
"uuiww9uwwwwww9w99w9uuww9=wwww9w-=9=w9=9w9wwwuuuuwuuuu999ww99wiuuuuuww9www9ww99w9999uuu999uwww9w:9=99==99999wwwwwwwuww=999=9=9wuw",
"uuiwww9ww9www99w9wwww999ww==%99w==99==wwwuiuw9wuuwwuuwuu99wuuiiiuuiwww9w99w9w9w99ww9999wuw99=99w==99==9wwwuww=9ww99wwwww==9wwwuu",
"uwwuww9999wwwww9wwwww99w999==9ww#999%99uiwwww99wuuuuuwuuw=iuuuiuuuwwwww999999999wwww9=wuwww999ww=999%=9uww9w9==99www99ww9=wwwwww",
"wwww99w999w9999999www9=99==9=9ww=99999%ww9wuww99wwwuuuuuwuiuwwuwuwww9ww9=99=9=9999uww=9www9w9w9w=ww999%999ww99==99999ww99ww999ww",
"uw9999w999999w999www99%=%9==999www99w==9www=9wuwuwwwuuuuiu99wwwwu99w99w=9=99=99999www9*99ww999wuww9ww==9999==ww9w999w99w9w==999w",
"ww9999999999ww9w9999999=====9=9=9w99w=99w9w99wwuuwwuuuwuwu9wuw9www9999w999=9999999www999w99ww999uww9w=9=999==w9ww999ww999w=9w99w",
"w9=9=99999999www999w99=99=9==99999999999wwwwwuuuuu9wiuuuuuuwwww9w99999999===9999w99ww99wwww99www9uw9w99=9999999w99=99w9w9ww9www9",
"w99=9=99=99wwuww99999w=99==$=99=999=99999www9wuuuuwuuiuuuuw9w99ww==99999=9=99w99wwww9w9ww9w:ww99www9w999=999=99www99w9ww9ww9ww9w",
"w9999====99wwwwwwww9w9w=99999=9=99w9=999999ww9w9uuuwwuuu99www9=w=9=9999999999=999w9=w9w99www9ww99www99999==99==99999999w99ww9w9w",
"w99===9999wwuwww9ww9w2999w9==99=9w99w99999www99wwuu9ww9w999ww9=w9=9999w9w999999w9w==w:w9wwwww9w9wwwww=w==9999===999=9=9999999w9w",
"w999===99wwwwww9w9wwwww9999-99=9=9ww9999999ww=w9wuwuw9w9w999====9999=999999999999=w9ww9999w;9w9w9wwuw999=9=9=%==99999==999ww9w9w",
"=999999999ww9w9w9tw9w9w99w9w99=9=99ww9999wwwwww=9wwww999w==9==99*9=99999999==w=9=w9%9=99=w9www9w9wwww9===99999=%=9=99=99w9qw99ww",
"w99999w9ww99wwwwqwww999ww9:9999===99w9999wwwuuwwuwwwwww99==9===w==9999ww==9===9=99===9=9w9;ww99w99wwwww9w999999==9999=9=6=9wwwwu",
"www9wwwwwwwwwwwww9ww29=99w999=99===99wwwww9wuwuu9wwwwuu9*=.=9===99=9=999999=99==%.99.9===w9ww9w==99wwuuwww999==w=9999w99==#wuwww",
"u9wwuwww9wwwwwwww9w99=99w99999999=999wwwwwwwwuipuuuuwwuu=%%%==%==999999==9======*X==9=9=u=9wwwwww9wwwuuuww9=999w999999ww==9wiuwu",
"wwwwwuwwwuwwwwww06999999ww9w99==9=999ww9wwuwuiuuuuwwwuwwwX@%%=%9=99w9999=9=*==%%.X==9=9=uw9www=w9=wwwuuwwww=999999999ww9w@,9wuwu",
"uwwwuuwuuww9w9q6622996===999%w99$=999wwwwwuuupuuuuuuwuuu=$XX%===999www999==%===.X$o====9=9ww=w9w;9wwwuuwwwww9w=99999=9w9=$,<wwww",
"w9wwwuuuw9ww99992<99=9=9==999=999999wwwwwwuuuuwuwuuuu=u9$=$X=====9w99w99=%%=%%==oo=====99=9w99wwww99wwwuwww999=9=99ww%w=X=$<9www",
"999wwwww6w99<99#=9999=w=9==w9=w:9ww9w9uuuwuwuuuuuu9wuw99;=$=======9ww99=.=%=.==$======w99==ww9w:wwwwwwuuwww99w=999==99==X=$=9999",
"9=9w9wwuuww9999;99=999====99w9ww99wwwwuuwuiuuwuii9;9www9;9$$699=9=999=w99==%===$====9=9=9==wu9uw99wwuwuuwuwww9w9w=.=9=9=$=$,=96=",
"$=$$=wwww999969#==9====9999w==w=w9w9wwuuuuuuuipu9,9qwwuw996999=9$9;$9999====9==$====9===999w==99wwuwuuuuuuuwwwww=o===9w=====9===",
"9w=ww999=9=96=======9==$#999=999wwwwwuuuwuuuipuuw99w$ww=9w=999w9ww9www99=99==9======9==$oww=9999wuuuuuiuwuuuiuuww9=9ow9=99==9=9=",
"=9===9=99=99=9999999999699999999999999w99ww999w9w9w99ww9w99ww999w99w99999999=9=99999999999=9999999999w9999999999==99999999=99999",
"######+##########@###@#######@##%###########+#################+################+##+##########+#%###############################@",
"9====9=999=9=99999=9999=9==9=99===9==9=99999=99=999=9=999=9999999999999999999=999999999999999999999999999=99=69=9=9==99==9=99==9",
"uuuiiipaaaaaaaaaaaaapppiiiiuuwwwuuuuiipippipippiiaiappaaaaiiiiiiuiiiiiaaaaaaaaaaaaaapaaaaaaiuuuiuiuiiaaaaaaaaaaaaaaaaiiappiuuuuu",
"=9uw99w9iuiww9w999ww99=9.===*9w9==9===99=99=9========9=$**#;#99999uu99w9iuuww99999ww9999o9w999uw999996999999=9====9==99$%%#X#9==",
"9=9w9w9wuwuw9$999;9w9===X**===999=9====9999==9=9==9===9=;*%o#99w999ww99uuwww9-999$9w9999;9999ww9w9w==9999999=9=9==9===9=$%%$#999",
"9=9wwwwiuw9999999w99w9.*=%%=.ww99www=999==9===9=====9==9$;,9,=w9w9wwwwwuww999999999wuw$99999,uuuwwwu9999==9=99999==999=9$$$=X===",
"=wwwwwwwu9;9;9;999ww99w9w%9=999w99=999=99999=9==========99=9999w9wwwwwwww9;9$9X=9wuuuuuwu9uwuuuuww99w9999ww9999999===9===9=*===9",
"=99w99ww9;;9;9999wuw9w999=99ww99999=99=9=9w99==-;=%===99=999=999ww9t99w99$$9$=999wiuwwwwtwuuiiuuiww9ww9==uww99=;;9=9============",
"=9$=9$9w999;$9==9uuw99999999%9999999ww9ww9=999w9q;==9=9ww999999999;6=o=9=99$$=999ipiwuwwwuuw9uuuuwwwuwwwww9wwwwuw:9=9=999=======",
"9=$$===9=99;=X9=9w99=.999www99999ww9wwu9w=99999w==;====9==999==9w9;$9======$=$99wu9u9$wwwuuuwwiwwuuwwuw999=wwuww99-99========%==",
"==$X$29999=;=999999999=9uw999=9w9w9w99999ww99999===*99o=====99=999o$,=9====$=29wuwuwww9wiw9ww9wwww999====ww9999w99==w9.9%=%%=%%9",
"=X=$X99999$$==9=9w999%99uw999=9w99w9999wwww99w=9=%%%99w9===9999w9,=;$==9=9$X9999wiuww999uuwww9uw9w99=====9=9=w=99===w9w9========",
"9X=$9=99$X9======ww9999==uw999w99w999ww9ww99=9=%==%%==9=9===9=999;9$===9X$9999ww9iiw9999=uwwwwuuw999=9====9====%%==*=9w99==%====",
"=X=X$X=9===XX=999w999w9=%=9=9=9w9wwwwwwuuuw9999=%%%%%==www===9=w=,=$$o=*===XX99uuiw9999%%9u9w9wwww9w9=9=99======%%===999w9==%=%=",
"===*9========*=99w=99999==99999wwwwwwwuuuwww9====*%%%======99=w99=====*===*=9=9uuu9w99999=w99ww9ww999999==9==%==%=%=%=99======99",
"==99=9=======9=9999w%999==999w99wwwwwuwwww9w9==9===%%%%===99=99=99==9=%=%==99999uww9%%999=w9ww999999=9=======%===%=%=========%9%",
"==========%=====9999%==%=%=99999wwwwwuuwuww9w9===9%=%%%==9ww9==9=====%==%===99=wwuw9%==%===99w999=99999=9===9=%==9%=%===9999====",
".=9=9=9====9=999u99=9=%==9=999999wwuwuwww9ww99=99=9===99999=9==o;=9===%====9=wwwi9999=%==999999999999999=999==%=======99999====X",
"%$=9======-*999=9w%9=9%====%=9=99ww9wwww9wwww9=99====9999999==9X*$=9%==%==:=www=wu=99w===9==99===99=999w99999===9%%9==99999====X",
"%99==99====9=%=%9===99===999===999www9wwwwwww9w999====999==9#o$$%=9=====%==99=9=ww9999==9999=9999==99999w9999=9=99===999==99#X$X",
"99=9==9=9======9%==9=9%==999===99w9ww9wwww9www9999=%=99%%%9=w9=999==%=%=9==9=99u9w999w=9=9999==9999999ww99999999=99=999%==999w9=",
"99=99==9=9====9=%%=99=9===999=9999w9w9www9w9w99w9999==%%%===9=9=w9=%=%======w9ww=9999=9=9=999==9=9999ww9w999999999999==%%9=99999",
"99=9=9=9=9=9==%%=%%99==999999==999ww9w9www9w99w9999=%%%%%%%=99w=w9*===%%%==9==9=9=99=9999==99=9==99ww9ww999w9w9999====%%*==99ww9",
"w999999=99=====%==99999wu9w99===9999w9www9w999999===% %% %%9%=9=w====%=====99999www999999=9999=99999w999w9999999999=%%%===99999=",
"$999==9=99====%9=9999wwwuwww9=9=9999w99w9q9999999==%%..%%%%%*=%9o===%=%*=9=9999wwuww999=9==9999999999999999=99=9===%%X$*%==999=w",
"9999999===========9999wwuuuw99=9999999w9ww999=9==%%=%==.%%%%9=9===%========9999ww99ww9999999999999999=99=9=9=====*%==99$=99wwww9",
"9999=9=========9%=99wuwwwwwww9999999999999=99==9==%===%%.%==========%=*====999ww=9wwww====99w99w99999====9===%==%=%==9==X%99w999",
"=99===$======999=99wwww9wwwww99999w9w99999999======9==%==%%%==%====%=%.=====9www9w9wwww===99999ww99999=9======%====w==%==%9=9999",
"999=9=$===%%%===99999wu99w9999w999w999999======%====9%%%%%===%%=%==%==X===%%=9=9w9999ww%====9999w9999=99=====%%%===99=%%%%%99999",
"29=oX$=X%=%%=====999=9u9==w9w9999w9999=9==9=9%%=%===9====%%9%======o.o=X==%====9999999w9=%==9999999=9=======9===%===9==%=%=w9=9=",
"999=$$====%%%====9===99=w999ww999999999=====%==%====9==9============$$===9%%%====9====9999==99999999999====99==*=%===%=9=%*====9",
"=9=99=9====9=9=99=99999999=====%%=%=%=%%%%%%%%%%%%%%%%=====9===9=9=======9=9999999=9=99==9==%==%===%=%=========%%%%%%%%%%9=99=99"
};
